<svg width="40" height="38" viewBox="0 0 40 38" fill="none" xmlns="http://www.w3.org/2000/svg">
<rect width="40" height="38" rx="8" fill="#878787"/>
<path fill-rule="evenodd" clip-rule="evenodd" d="M30.0253 8.70734C30.2536 8.58771 30.5294 8.6078 30.7394 8.75665C30.9495 8.90641 31.0572 9.16027 31.0198 9.41595L28.5086 26.3095C28.4784 26.5095 28.3606 26.6876 28.1871 26.7935C28.0785 26.8592 27.9552 26.893 27.831 26.893C27.7561 26.893 27.6812 26.8802 27.61 26.8565L18.0373 23.5846L27.4502 12.244L15.2859 22.645L9.5741 20.6926C9.31567 20.6041 9.13395 20.3703 9.11295 20.0963C9.09286 19.8233 9.23623 19.564 9.47913 19.437L30.0253 8.70734ZM17.102 28.9495V24.7142L20.8159 25.9835L18.3385 29.3549C18.207 29.5339 18.0006 29.6343 17.7869 29.6343C17.7157 29.6343 17.6435 29.6234 17.5732 29.6006C17.292 29.5074 17.102 29.2453 17.102 28.9495Z" fill="white"/>
</svg>
